<svg xmlns="http://www.w3.org/2000/svg" width="407" height="97" viewBox="0 0 407 97">
<g>
<path d="M 275.25 59.92 C274.84,61.25 274.01,62.50 273.40,62.70 C271.34,63.38 270.10,60.42 269.52,53.46 C269.20,49.63 268.73,44.14 268.46,41.25 L 267.98 36.00 L 270.99 36.00 C273.76,36.00 274.00,36.28 274.00,39.50 C274.00,44.10 275.28,43.93 277.47,39.06 C280.62,32.08 285.00,32.52 285.00,39.81 C285.00,44.96 286.11,44.54 287.98,38.68 C289.36,34.37 291.47,33.04 293.59,35.16 C295.68,37.25 299.60,59.80 298.13,61.27 C296.19,63.21 294.07,59.94 292.88,53.20 C291.67,46.33 290.50,45.32 289.50,50.25 C287.67,59.24 286.92,61.00 284.94,61.00 C282.48,61.00 281.00,57.42 281.00,51.49 C281.00,45.05 279.37,45.16 277.58,51.74 C276.71,54.91 275.66,58.59 275.25,59.92 ZM 246.34 70.25 C245.63,71.41 243.35,71.14 242.24,69.75 C241.68,69.06 240.93,66.47 240.56,64.00 C240.19,61.53 239.66,58.28 239.37,56.78 L 238.86 54.07 L 235.08 58.03 C233.01,60.22 230.54,62.00 229.61,62.00 C227.47,62.00 223.00,57.61 223.00,55.51 C223.00,50.43 229.72,40.34 234.12,38.81 L 237.00 37.80 L 237.00 28.40 C237.00,19.70 237.15,19.00 238.98,19.00 C241.38,19.00 241.68,20.27 242.47,33.50 C242.80,39.00 243.90,49.35 244.93,56.50 C245.95,63.65 246.58,69.84 246.34,70.25 ZM 211.92 57.00 C209.18,60.30 206.55,63.00 206.09,63.00 C203.69,63.00 203.09,59.04 202.51,39.23 C201.89,18.19 201.91,18.00 203.97,18.00 C206.69,18.00 208.00,21.55 208.00,28.93 L 208.00 34.72 L 211.98 33.66 C218.13,32.02 221.42,33.58 221.81,38.32 C222.18,42.79 219.45,47.95 211.92,57.00 ZM 321.28 47.65 C321.43,57.59 321.15,62.43 320.40,62.69 C318.45,63.36 317.17,60.63 316.45,54.24 C316.06,50.81 315.42,48.00 315.02,48.00 C314.63,48.00 313.50,49.78 312.52,51.95 C310.30,56.88 306.75,60.29 304.34,59.81 C302.73,59.49 302.51,58.45 302.60,51.39 C302.68,44.53 303.12,42.55 305.55,38.08 C307.52,34.47 309.58,32.23 312.16,30.92 C320.10,26.87 321.00,28.51 321.28,47.65 ZM 355.01 52.81 C356.59,58.57 356.96,61.44 356.24,62.16 C354.35,64.05 351.28,59.51 349.67,52.47 C348.83,48.77 347.74,45.34 347.25,44.85 C346.72,44.32 345.10,47.59 343.31,52.73 C340.94,59.58 339.86,61.50 338.39,61.50 C336.64,61.50 336.48,60.45 336.22,47.18 L 335.94 32.85 L 338.22 33.18 C339.97,33.42 340.62,34.32 341.03,37.00 L 341.57 40.50 L 343.31 37.25 C344.55,34.94 345.76,34.00 347.50,34.00 C349.60,34.00 350.14,34.73 351.34,39.25 C352.11,42.14 353.76,48.24 355.01,52.81 ZM 259.79 60.52 C255.91,63.79 253.72,63.65 250.59,59.92 C249.56,58.70 248.89,57.98 248.52,57.12 C247.85,55.59 248.13,53.64 249.00,47.67 C249.07,47.23 249.13,46.78 249.20,46.30 C250.30,38.73 250.60,38.00 252.64,38.00 C253.87,38.00 255.13,38.41 255.44,38.91 C255.75,39.40 256.81,39.60 257.81,39.34 C261.00,38.51 264.15,42.12 264.73,47.27 C265.37,52.95 263.80,57.15 259.79,60.52 ZM 82.11 61.24 C80.68,62.20 78.97,62.99 78.32,62.99 C75.27,63.01 72.25,56.99 73.29,52.98 C73.58,51.89 73.38,50.74 72.86,50.41 C72.29,50.06 72.43,49.19 73.20,48.27 C73.92,47.41 75.62,44.41 77.00,41.60 C78.97,37.58 80.07,36.43 82.19,36.19 C84.92,35.87 89.00,38.85 89.00,41.16 C89.00,41.79 86.71,44.41 83.92,46.98 C79.66,50.90 78.89,52.13 79.20,54.58 C79.56,57.50 79.57,57.50 86.91,50.21 C90.95,46.20 94.76,43.09 95.38,43.29 C96.00,43.49 96.64,44.63 96.82,45.82 C97.05,47.39 95.46,49.54 90.93,53.74 C87.52,56.91 83.55,60.28 82.11,61.24 ZM 108.03 61.36 C104.78,63.51 103.48,63.43 101.13,60.91 C99.01,58.63 97.82,49.58 99.43,47.97 C99.94,47.46 101.52,44.67 102.93,41.77 C105.30,36.92 105.78,36.50 108.96,36.50 C111.72,36.50 112.73,37.07 113.96,39.31 C115.49,42.10 115.46,42.15 110.23,46.81 C106.26,50.34 104.97,52.18 104.98,54.25 C104.99,55.76 105.38,57.00 105.85,57.00 C106.32,57.00 109.69,53.86 113.34,50.03 C119.83,43.20 123.00,41.84 123.00,45.89 C123.00,47.57 112.61,58.31 108.03,61.36 ZM 166.60 60.42 C161.56,63.07 159.83,63.49 158.67,62.33 C157.04,60.71 158.40,59.24 163.94,56.61 C167.21,55.06 170.62,52.98 171.51,51.99 C173.52,49.77 173.17,49.63 161.24,47.94 C152.96,46.76 148.00,44.35 148.00,41.50 C148.00,38.26 153.23,34.01 159.68,32.02 C167.91,29.48 171.27,29.38 170.82,31.71 C170.62,32.76 168.76,33.91 165.99,34.69 C156.24,37.47 151.83,40.54 154.88,42.43 C155.37,42.73 160.28,43.61 165.80,44.38 C171.32,45.15 176.32,46.08 176.92,46.45 C180.65,48.76 175.51,55.72 166.60,60.42 ZM 34.50 55.66 C34.50,61.18 34.19,62.51 32.84,62.78 C30.65,63.22 30.24,62.38 29.48,55.94 C29.13,52.95 28.63,49.84 28.37,49.04 C28.11,48.23 27.69,43.34 27.42,38.16 L 26.94 28.74 L 29.99 29.35 C32.19,29.79 34.57,29.21 38.49,27.28 C47.50,22.87 47.55,26.67 38.56,32.42 C33.63,35.57 33.00,36.35 33.00,39.32 C33.00,41.16 33.28,42.95 33.62,43.29 C33.96,43.63 36.87,42.58 40.09,40.95 C52.01,34.94 53.15,39.02 41.30,45.28 L 34.50 48.88 ZM 198.00 53.12 C198.00,63.18 197.76,65.00 196.45,65.00 C195.60,65.00 194.33,63.64 193.63,61.97 C192.36,58.96 192.35,58.95 190.52,60.97 C188.05,63.71 185.56,63.52 183.12,60.43 C180.56,57.17 179.75,51.27 180.73,43.00 C181.45,36.94 181.67,36.50 184.00,36.50 C186.07,36.50 186.46,36.93 186.25,39.00 C186.12,40.38 185.73,44.24 185.38,47.58 C184.96,51.67 185.17,54.44 186.01,56.02 L 187.27 58.38 L 189.06 56.18 C191.15,53.59 193.00,45.75 193.00,39.45 C193.00,35.77 193.32,35.00 194.88,35.00 C197.40,35.00 198.00,38.49 198.00,53.12 ZM 376.50 56.89 C374.03,60.25 371.63,63.00 371.17,63.00 C368.64,63.00 368.23,58.89 370.55,56.95 C371.41,56.25 372.58,54.79 373.15,53.73 C374.13,51.89 373.92,51.82 369.07,52.49 C365.13,53.03 363.37,52.82 361.47,51.57 C358.12,49.38 358.35,48.02 362.75,43.85 C368.45,38.45 371.09,37.00 375.22,37.00 C379.74,37.00 380.47,39.42 376.25,40.46 C372.69,41.33 367.02,45.16 367.01,46.69 C367.00,47.56 368.92,47.72 374.00,47.30 C380.57,46.75 381.00,46.84 381.00,48.74 C381.00,49.86 378.98,53.53 376.50,56.89 ZM 59.00 54.84 C58.50,62.39 57.04,64.87 55.20,61.31 C54.69,60.31 53.97,55.90 53.60,51.50 C53.24,47.10 52.67,41.36 52.34,38.75 C51.76,34.14 51.82,34.00 54.37,34.00 C56.51,34.00 57.00,34.47 57.00,36.50 C57.00,39.78 58.00,39.65 61.56,35.91 C65.26,32.03 67.43,30.84 69.43,31.61 C71.83,32.53 71.32,34.39 67.99,36.85 C62.29,41.06 59.55,46.55 59.00,54.84 ZM 332.42 57.90 C332.50,62.46 331.13,64.07 329.18,61.71 C327.91,60.18 325.44,36.89 326.31,34.63 C326.65,33.74 327.66,33.36 328.85,33.67 C330.58,34.12 330.92,35.42 331.58,43.84 C332.00,49.15 332.38,55.48 332.42,57.90 ZM 208.70 53.37 C209.63,54.30 215.72,44.55 216.54,40.81 C217.35,37.14 216.93,36.70 213.79,37.89 C209.33,39.59 208.00,41.76 208.00,47.40 C208.00,50.30 208.31,52.98 208.70,53.37 ZM 253.61 54.58 C254.42,57.81 256.41,57.63 258.93,54.10 C262.24,49.46 261.29,43.41 257.38,44.17 C255.10,44.60 252.74,51.12 253.61,54.58 ZM 229.00 53.75 C229.00,55.54 229.34,56.99 229.75,56.97 C232.24,56.86 237.99,49.05 238.00,45.75 C238.00,44.55 237.22,44.00 235.49,44.00 C232.37,44.00 229.01,49.05 229.00,53.75 ZM 308.00 46.31 C308.00,50.02 309.68,48.92 312.08,43.63 C314.20,38.96 314.47,37.00 312.99,37.00 C311.35,37.00 308.01,43.25 308.00,46.31 ZM 329.09 18.50 C329.11,19.72 326.67,20.34 325.70,19.37 C324.33,18.00 325.03,16.87 327.04,17.18 C328.16,17.36 329.09,17.95 329.09,18.50 Z" fill="rgb(78,136,231)"/>
<path d="M 0.00 48.50 L 0.00 0.00 L 203.50 0.00 L 407.00 0.00 L 407.00 48.50 L 407.00 97.00 L 203.50 97.00 L 0.00 97.00 L 0.00 48.50 ZM 246.34 70.25 C246.58,69.84 245.95,63.65 244.93,56.50 C243.90,49.35 242.80,39.00 242.47,33.50 C241.68,20.27 241.38,19.00 238.98,19.00 C237.15,19.00 237.00,19.70 237.00,28.40 L 237.00 37.80 L 234.12 38.81 C229.72,40.34 223.00,50.43 223.00,55.51 C223.00,57.61 227.47,62.00 229.61,62.00 C230.54,62.00 233.01,60.22 235.08,58.03 L 238.86 54.07 L 239.37 56.78 C239.66,58.28 240.19,61.53 240.56,64.00 C240.93,66.47 241.68,69.06 242.24,69.75 C243.35,71.14 245.63,71.41 246.34,70.25 ZM 198.00 53.12 C198.00,38.49 197.40,35.00 194.88,35.00 C193.32,35.00 193.00,35.77 193.00,39.45 C193.00,45.75 191.15,53.59 189.06,56.18 L 187.27 58.38 L 186.01 56.02 C185.17,54.44 184.96,51.67 185.38,47.58 C185.73,44.24 186.12,40.38 186.25,39.00 C186.46,36.93 186.07,36.50 184.00,36.50 C181.67,36.50 181.45,36.94 180.73,43.00 C179.75,51.27 180.56,57.17 183.12,60.43 C185.56,63.52 188.05,63.71 190.52,60.97 C192.35,58.95 192.36,58.96 193.63,61.97 C194.33,63.64 195.60,65.00 196.45,65.00 C197.76,65.00 198.00,63.18 198.00,53.12 ZM 34.50 55.66 L 34.50 48.88 L 41.30 45.28 C53.15,39.02 52.01,34.94 40.09,40.95 C36.87,42.58 33.96,43.63 33.62,43.29 C33.28,42.95 33.00,41.16 33.00,39.32 C33.00,36.35 33.63,35.57 38.56,32.42 C47.55,26.67 47.50,22.87 38.49,27.28 C34.57,29.21 32.19,29.79 29.99,29.35 L 26.94 28.74 L 27.42 38.16 C27.69,43.34 28.11,48.23 28.37,49.04 C28.63,49.84 29.13,52.95 29.48,55.94 C30.24,62.38 30.65,63.22 32.84,62.78 C34.19,62.51 34.50,61.18 34.50,55.66 ZM 59.00 54.84 C59.55,46.55 62.29,41.06 67.99,36.85 C71.32,34.39 71.83,32.53 69.43,31.61 C67.43,30.84 65.26,32.03 61.56,35.91 C58.00,39.65 57.00,39.78 57.00,36.50 C57.00,34.47 56.51,34.00 54.37,34.00 C51.82,34.00 51.76,34.14 52.34,38.75 C52.67,41.36 53.24,47.10 53.60,51.50 C53.97,55.90 54.69,60.31 55.20,61.31 C57.04,64.87 58.50,62.39 59.00,54.84 ZM 82.11 61.24 C83.55,60.28 87.52,56.91 90.93,53.74 C95.46,49.54 97.05,47.39 96.82,45.82 C96.64,44.63 96.00,43.49 95.38,43.29 C94.76,43.09 90.95,46.20 86.91,50.21 C79.57,57.50 79.56,57.50 79.20,54.58 C78.89,52.13 79.66,50.90 83.92,46.98 C86.71,44.41 89.00,41.79 89.00,41.16 C89.00,38.85 84.92,35.87 82.19,36.19 C80.07,36.43 78.97,37.58 77.00,41.60 C75.62,44.41 73.92,47.41 73.20,48.27 C72.43,49.19 72.29,50.06 72.86,50.41 C73.38,50.74 73.58,51.89 73.29,52.98 C72.25,56.99 75.27,63.01 78.32,62.99 C78.97,62.99 80.68,62.20 82.11,61.24 ZM 108.03 61.36 C112.61,58.31 123.00,47.57 123.00,45.89 C123.00,41.84 119.83,43.20 113.34,50.03 C109.69,53.86 106.32,57.00 105.85,57.00 C105.38,57.00 104.99,55.76 104.98,54.25 C104.97,52.18 106.26,50.34 110.23,46.81 C115.46,42.15 115.49,42.10 113.96,39.31 C112.73,37.07 111.72,36.50 108.96,36.50 C105.78,36.50 105.30,36.92 102.93,41.77 C101.52,44.67 99.94,47.46 99.43,47.97 C97.82,49.58 99.01,58.63 101.13,60.91 C103.48,63.43 104.78,63.51 108.03,61.36 ZM 166.60 60.42 C175.51,55.72 180.65,48.76 176.92,46.45 C176.32,46.08 171.32,45.15 165.80,44.38 C160.28,43.61 155.37,42.73 154.88,42.43 C151.83,40.54 156.24,37.47 165.99,34.69 C168.76,33.91 170.62,32.76 170.82,31.71 C171.27,29.38 167.91,29.48 159.68,32.02 C153.23,34.01 148.00,38.26 148.00,41.50 C148.00,44.35 152.96,46.76 161.24,47.94 C173.17,49.63 173.52,49.77 171.51,51.99 C170.62,52.98 167.21,55.06 163.94,56.61 C158.40,59.24 157.04,60.71 158.67,62.33 C159.83,63.49 161.56,63.07 166.60,60.42 ZM 211.92 57.00 C219.45,47.95 222.18,42.79 221.81,38.32 C221.42,33.58 218.13,32.02 211.98,33.66 L 208.00 34.72 L 208.00 28.93 C208.00,21.55 206.69,18.00 203.97,18.00 C201.91,18.00 201.89,18.19 202.51,39.23 C203.09,59.04 203.69,63.00 206.09,63.00 C206.55,63.00 209.18,60.30 211.92,57.00 ZM 259.79 60.52 C263.80,57.15 265.37,52.95 264.73,47.27 C264.15,42.12 261.00,38.51 257.81,39.34 C256.81,39.60 255.75,39.40 255.44,38.91 C255.13,38.41 253.87,38.00 252.64,38.00 C250.60,38.00 250.30,38.73 249.20,46.30 C247.65,57.02 247.58,56.35 250.59,59.92 C253.72,63.65 255.91,63.79 259.79,60.52 ZM 275.25 59.92 C275.66,58.59 276.71,54.91 277.58,51.74 C279.37,45.16 281.00,45.05 281.00,51.49 C281.00,57.42 282.48,61.00 284.94,61.00 C286.44,61.00 287.19,59.96 288.01,56.75 C289.67,50.28 289.82,49.99 291.34,50.58 C292.12,50.87 293.00,52.95 293.30,55.20 C293.94,59.98 296.37,63.03 298.13,61.27 C299.46,59.94 295.84,37.72 293.91,35.39 C292.03,33.13 289.90,33.79 288.69,37.01 C287.43,40.35 285.67,40.47 285.19,37.26 C284.85,34.97 282.78,33.76 280.63,34.59 C279.87,34.88 278.45,36.89 277.47,39.06 C275.28,43.93 274.00,44.10 274.00,39.50 C274.00,36.28 273.76,36.00 270.99,36.00 L 267.98 36.00 L 268.46 41.25 C268.73,44.14 269.20,49.63 269.52,53.46 C270.10,60.42 271.34,63.38 273.40,62.70 C274.01,62.50 274.84,61.25 275.25,59.92 ZM 321.28 47.65 C321.00,28.51 320.10,26.87 312.16,30.92 C306.51,33.80 302.95,41.04 302.26,51.04 C301.78,58.00 301.93,59.04 303.49,59.64 C305.90,60.56 307.96,59.11 311.32,54.14 C312.88,51.85 314.54,50.22 315.02,50.51 C315.49,50.81 316.19,53.17 316.57,55.77 C317.31,60.87 318.65,63.29 320.40,62.69 C321.15,62.43 321.43,57.59 321.28,47.65 ZM 332.42 57.90 C332.38,55.48 332.00,49.15 331.58,43.84 C330.92,35.42 330.58,34.12 328.85,33.67 C327.66,33.36 326.65,33.74 326.31,34.63 C325.44,36.89 327.91,60.18 329.18,61.71 C331.13,64.07 332.50,62.46 332.42,57.90 ZM 355.01 52.81 C353.76,48.24 352.11,42.14 351.34,39.25 C350.14,34.73 349.60,34.00 347.50,34.00 C345.76,34.00 344.55,34.94 343.31,37.25 L 341.57 40.50 L 341.03 37.00 C340.62,34.32 339.97,33.42 338.22,33.18 L 335.94 32.85 L 336.22 47.18 C336.48,60.45 336.64,61.50 338.39,61.50 C339.86,61.50 340.94,59.58 343.31,52.73 C345.10,47.59 346.72,44.32 347.25,44.85 C347.74,45.34 348.83,48.77 349.67,52.47 C351.28,59.51 354.35,64.05 356.24,62.16 C356.96,61.44 356.59,58.57 355.01,52.81 ZM 376.50 56.89 C378.98,53.53 381.00,49.86 381.00,48.74 C381.00,46.84 380.57,46.75 374.00,47.30 C368.92,47.72 367.00,47.56 367.01,46.69 C367.02,45.16 372.69,41.33 376.25,40.46 C380.47,39.42 379.74,37.00 375.22,37.00 C371.09,37.00 368.45,38.45 362.75,43.85 C358.35,48.02 358.12,49.38 361.47,51.57 C363.37,52.82 365.13,53.03 369.07,52.49 C373.92,51.82 374.13,51.89 373.15,53.73 C372.58,54.79 371.41,56.25 370.55,56.95 C368.23,58.89 368.64,63.00 371.17,63.00 C371.63,63.00 374.03,60.25 376.50,56.89 ZM 329.09 18.50 C329.09,17.95 328.16,17.36 327.04,17.18 C325.03,16.87 324.33,18.00 325.70,19.37 C326.67,20.34 329.11,19.72 329.09,18.50 ZM 229.00 53.75 C229.01,49.05 232.37,44.00 235.49,44.00 C237.22,44.00 238.00,44.55 238.00,45.75 C237.99,49.05 232.24,56.86 229.75,56.97 C229.34,56.99 229.00,55.54 229.00,53.75 ZM 208.70 53.37 C208.31,52.98 208.00,50.30 208.00,47.40 C208.00,41.76 209.33,39.59 213.79,37.89 C216.93,36.70 217.35,37.14 216.54,40.81 C215.72,44.55 209.63,54.30 208.70,53.37 ZM 253.61 54.58 C252.74,51.12 255.10,44.60 257.38,44.17 C261.29,43.41 262.24,49.46 258.93,54.10 C256.41,57.63 254.42,57.81 253.61,54.58 ZM 308.00 46.31 C308.01,43.25 311.35,37.00 312.99,37.00 C314.47,37.00 314.20,38.96 312.08,43.63 C309.68,48.92 308.00,50.02 308.00,46.31 Z" fill="rgba(252, 253, 253, 0)"/>
</g>
</svg>
