<svg xmlns="http://www.w3.org/2000/svg" width="896" height="1152" viewBox="0 0 896 1152">
<g>
<path d="M 458.43 1042.02 C453.30,1044.52 450.35,1044.51 446.23,1042.00 C441.89,1039.36 410.16,1008.22 408.53,1005.01 C407.82,1003.63 405.58,996.42 403.55,989.00 C401.52,981.58 399.40,974.05 398.86,972.27 C398.31,970.50 397.05,965.77 396.05,961.77 C394.12,953.97 380.92,905.31 376.05,888.00 C374.42,882.22 369.70,864.90 365.56,849.50 C361.42,834.10 356.01,814.08 353.55,805.00 C351.08,795.92 348.16,785.12 347.05,781.00 C342.99,765.86 338.74,750.40 337.58,746.50 C336.28,742.13 335.00,741.06 303.77,718.35 C295.11,712.06 286.95,705.47 285.62,703.70 C284.29,701.94 276.59,687.67 268.50,672.00 C260.41,656.33 250.87,637.97 247.30,631.21 C241.62,620.46 240.86,618.39 241.25,614.71 C241.49,612.39 245.43,596.10 249.99,578.50 C254.56,560.90 258.87,544.03 259.56,541.00 C260.26,537.97 265.65,516.60 271.54,493.50 C282.17,451.75 286.79,433.02 287.74,427.74 L 288.23 424.98 L 169.97 425.01 C60.62,425.05 51.57,424.92 49.86,423.37 C48.80,422.41 48.01,420.36 48.02,418.60 C48.02,418.16 47.99,417.76 47.97,417.39 C47.92,416.66 47.87,416.04 48.07,415.51 C49.32,412.21 59.95,412.44 136.58,412.00 L 223.24 411.50 L 225.15 406.50 C226.20,403.75 229.95,395.65 233.48,388.50 C237.85,379.65 241.20,370.97 243.95,361.33 L 248.00 347.16 L 248.00 289.58 L 243.86 285.36 C239.02,280.43 239.05,277.36 243.92,278.33 C247.22,278.99 249.30,276.34 246.23,275.39 C245.28,275.09 241.93,273.69 238.79,272.26 C227.72,267.24 221.22,257.29 222.41,247.17 C224.01,233.56 235.05,222.75 248.74,221.40 C254.40,220.84 254.63,220.92 262.50,226.17 C269.42,230.78 270.90,232.30 273.46,237.42 C278.85,248.22 276.97,260.64 268.91,267.42 C265.21,270.54 258.73,274.00 256.60,274.00 C253.05,274.00 254.56,276.01 261.35,280.31 C265.35,282.84 271.75,286.33 275.56,288.06 C278.38,289.34 280.17,290.18 282.04,290.43 C285.47,290.88 289.15,289.36 299.83,284.95 L 300.50 284.68 L 311.50 280.14 L 318.76 270.89 C330.78,255.58 333.42,253.00 337.12,253.00 C338.91,253.00 349.17,255.72 359.93,259.04 L 379.50 265.09 L 399.50 285.60 L 420.00 290.36 C431.27,292.98 442.35,295.79 444.61,296.59 C448.14,297.85 451.09,300.96 465.11,318.20 C474.13,329.28 482.40,339.41 483.50,340.71 C485.17,342.68 490.42,344.30 515.26,350.48 L 545.02 357.88 L 553.26 363.66 C557.79,366.84 571.17,376.40 583.00,384.90 C594.83,393.40 608.18,402.98 612.68,406.18 L 620.86 412.00 L 730.93 412.00 C839.67,412.00 841.02,412.02 843.00,414.00 C845.56,416.56 845.53,419.05 842.93,422.37 L 840.85 425.00 L 628.00 425.00 L 628.00 443.87 C628.00,444.56 628.00,445.22 628.00,445.87 C627.99,451.91 627.99,456.11 628.46,460.25 C629.58,470.05 633.36,479.55 646.09,512.67 C648.24,518.27 650.00,523.73 650.00,524.80 C650.00,527.13 646.81,539.58 640.48,562.00 C637.91,571.08 634.00,585.25 631.78,593.50 L 627.75 608.50 L 628.92 635.50 C629.57,650.35 630.36,667.01 630.68,672.51 L 631.26 682.52 L 611.54 705.51 C600.69,718.16 588.35,732.55 584.10,737.50 C579.85,742.45 576.05,747.05 575.65,747.72 C575.24,748.40 572.03,764.60 568.51,783.72 C559.95,830.17 556.06,851.04 555.47,853.71 C555.12,855.29 551.30,858.08 542.24,863.38 C535.23,867.48 527.67,871.93 525.42,873.27 C521.82,875.43 521.14,876.45 519.58,882.10 C518.62,885.62 516.09,894.35 513.98,901.50 C510.40,913.63 500.02,950.83 491.52,982.00 C488.05,994.73 487.12,996.77 475.17,1017.77 C463.56,1038.18 462.16,1040.21 458.43,1042.02 ZM 432.67 1018.05 C450.28,1035.44 452.93,1037.20 456.01,1033.49 C456.69,1032.66 462.38,1022.95 468.63,1011.90 C477.64,995.99 480.44,990.11 482.07,983.65 C483.20,979.17 484.97,972.58 486.00,969.00 C492.89,944.98 496.50,932.26 501.04,916.00 C503.87,905.83 506.80,895.47 507.53,893.00 C512.95,874.73 514.23,871.10 515.77,869.72 C516.72,868.86 522.45,865.24 528.50,861.66 C543.11,853.03 546.71,851.28 547.93,848.49 C548.51,847.15 548.55,845.56 548.99,842.86 C549.66,838.81 552.40,823.58 555.09,809.00 C557.79,794.42 560.70,778.45 561.58,773.50 C565.20,753.03 567.07,745.42 569.21,742.52 C572.57,737.95 594.45,711.98 612.40,691.24 L 622.30 679.80 L 621.64 665.15 C621.28,657.09 620.50,640.91 619.91,629.20 C618.89,608.99 618.94,607.55 620.85,601.20 C621.96,597.51 624.06,589.78 625.51,584.00 C626.96,578.22 630.54,565.17 633.48,555.00 C636.42,544.83 639.36,533.80 640.02,530.50 L 641.21 524.50 L 634.22 505.50 C630.37,495.05 625.50,481.55 623.41,475.50 L 619.60 464.50 L 619.22 445.35 C618.86,426.60 618.80,426.20 616.67,425.85 C615.48,425.66 543.06,425.63 455.75,425.78 C314.56,426.03 297.00,426.23 297.00,427.58 C297.00,429.24 293.78,442.23 267.49,546.50 L 249.85 616.50 L 254.04 624.50 C256.35,628.90 265.81,647.12 275.06,665.00 C284.31,682.88 292.72,698.40 293.75,699.50 C294.78,700.60 305.72,708.99 318.06,718.15 C330.40,727.31 341.48,735.86 342.68,737.15 C343.88,738.44 345.75,742.88 346.85,747.00 C347.94,751.12 350.02,758.78 351.47,764.00 C354.73,775.77 357.18,784.73 360.50,797.00 C361.91,802.22 364.91,813.03 367.15,821.00 C369.39,828.97 372.47,840.22 374.00,846.00 C375.52,851.78 377.76,860.10 378.97,864.50 C384.20,883.47 392.05,912.54 395.45,925.50 C397.47,933.20 401.79,949.17 405.06,961.00 C408.32,972.83 412.00,986.68 413.25,991.80 L 415.50 1001.09 ZM 302.00 411.14 C302.00,412.25 601.72,412.27 602.40,411.16 C602.69,410.69 590.74,401.58 575.85,390.91 C560.96,380.23 547.13,370.32 545.14,368.88 C542.35,366.88 535.11,364.71 514.24,359.62 C499.24,355.96 485.29,352.27 483.24,351.42 C479.43,349.83 474.72,344.56 452.65,317.26 C444.42,307.07 442.14,304.86 439.13,304.11 C437.13,303.61 426.73,301.11 416.00,298.56 C405.27,296.00 395.54,293.52 394.38,293.04 C393.21,292.55 388.59,287.96 384.12,282.82 L 376.00 273.49 L 357.56 267.64 C347.42,264.42 338.67,261.95 338.11,262.15 C337.55,262.34 332.80,267.88 327.55,274.46 C318.52,285.76 318.00,286.67 318.00,291.13 C318.00,295.64 318.18,295.95 322.23,298.18 C330.00,302.47 329.97,309.90 322.17,313.50 L 317.84 315.50 L 318.48 324.50 C318.83,329.45 320.01,340.39 321.11,348.81 C322.20,357.23 322.82,365.10 322.47,366.31 C321.64,369.19 320.27,372.20 310.34,392.89 C305.75,402.46 302.00,410.67 302.00,411.14 ZM 279.94 411.30 C279.97,411.74 282.55,411.96 285.67,411.80 L 291.33 411.50 L 302.13 389.00 C308.88,374.94 311.74,369.39 312.54,363.55 C313.11,359.37 312.64,355.05 311.78,347.34 C311.68,346.44 311.58,345.50 311.47,344.50 C310.63,336.80 309.67,326.45 309.34,321.50 C308.93,315.43 308.73,312.22 307.02,310.61 C305.10,308.80 301.28,309.01 293.12,309.46 L 292.95 309.47 C281.83,310.08 279.75,309.93 274.68,308.15 C271.53,307.04 266.09,303.85 262.58,301.07 C259.08,298.28 255.94,296.00 255.61,296.00 C255.27,296.00 255.00,306.74 255.00,319.87 L 255.00 343.74 L 264.35 355.62 C269.50,362.15 274.49,369.03 275.45,370.89 C277.94,375.72 280.06,389.89 279.96,401.00 C279.91,406.23 279.90,410.86 279.94,411.30 ZM 230.69 411.27 C230.94,411.69 240.67,411.92 252.32,411.77 L 273.50 411.50 L 273.20 401.50 C272.76,386.86 271.18,377.10 268.52,372.50 C267.24,370.30 263.40,364.96 259.98,360.63 C255.52,354.98 253.54,353.13 252.95,354.09 C252.50,354.82 250.91,360.30 249.43,366.27 C247.39,374.50 244.75,381.15 238.49,393.81 C233.95,402.99 230.44,410.85 230.69,411.27 ZM 480.73 683.75 C479.59,684.99 478.05,686.00 477.30,686.00 C475.21,686.00 474.25,682.70 471.45,666.00 C467.47,642.28 465.79,636.28 457.73,617.00 C453.37,606.59 443.54,586.62 436.50,573.89 C434.02,569.42 432.00,565.33 432.00,564.81 C432.00,564.29 432.95,564.00 434.10,564.18 C436.45,564.54 442.25,574.57 453.94,598.50 C467.30,625.83 469.92,634.02 477.06,670.75 C477.73,674.19 478.60,677.00 478.99,677.00 C479.39,677.00 481.81,673.51 484.36,669.25 C486.92,664.99 493.03,654.97 497.95,647.00 C518.40,613.82 525.00,602.42 525.00,600.26 C525.00,599.00 524.34,593.82 523.52,588.74 C520.94,572.60 517.00,542.29 517.00,538.58 C517.00,533.89 519.71,533.62 520.38,538.25 C522.31,551.60 526.43,578.68 528.12,589.21 L 530.16 601.92 L 526.23 609.71 C524.07,613.99 521.00,619.63 519.40,622.23 C517.81,624.83 513.13,632.48 509.01,639.23 C493.39,664.80 482.74,681.58 480.73,683.75 ZM 241.11 266.34 C245.55,268.68 247.32,269.09 251.18,268.65 C260.38,267.59 268.25,261.49 269.59,254.39 C272.05,241.28 263.70,230.41 249.75,228.56 C245.57,228.01 244.18,228.29 240.45,230.48 C234.91,233.72 230.99,238.84 229.48,244.77 C227.23,253.62 231.30,261.17 241.11,266.34 ZM 277.00 302.26 C277.83,302.58 284.43,302.88 291.68,302.92 L 304.86 303.00 L 306.93 300.10 C309.02,297.16 309.89,289.00 308.11,289.00 C307.61,289.00 302.72,290.80 297.24,293.00 C283.98,298.32 281.40,298.24 269.76,292.18 C264.67,289.52 259.51,286.73 258.30,285.96 C254.30,283.45 254.47,286.05 258.52,289.55 C262.79,293.23 274.53,301.31 277.00,302.26 ZM 259.25 262.61 C258.29,263.34 257.05,263.90 256.50,263.85 C252.02,263.48 245.32,260.28 244.49,258.12 C243.33,255.09 245.87,254.54 250.53,256.80 C253.02,258.01 256.39,259.00 258.03,259.00 C261.35,259.00 261.90,260.60 259.25,262.61 ZM 312.20 307.80 C312.86,308.46 314.80,309.00 316.50,309.00 C319.44,309.00 322.00,307.52 322.00,305.83 C322.00,305.40 320.68,304.37 319.06,303.53 C314.08,300.95 308.70,304.30 312.20,307.80 ZM 252.99 246.51 C252.31,247.33 251.42,248.00 251.00,248.00 C249.54,248.00 247.78,245.01 248.36,243.51 C248.68,242.68 249.87,242.00 251.00,242.00 C253.54,242.00 254.65,244.51 252.99,246.51 ZM 265.50 244.51 C265.50,247.09 261.52,247.80 260.59,245.39 C260.23,244.44 260.35,243.25 260.86,242.74 C262.41,241.19 265.50,242.37 265.50,244.51 Z" fill="rgb(10,16,21)"/>
<path d="M 458.43 1042.02 C462.16,1040.21 463.56,1038.18 475.17,1017.77 C487.12,996.77 488.05,994.73 491.52,982.00 C500.02,950.83 510.40,913.63 513.98,901.50 C516.09,894.35 518.62,885.62 519.58,882.10 C521.14,876.45 521.82,875.43 525.42,873.27 C527.67,871.93 535.23,867.48 542.24,863.38 C551.30,858.08 555.12,855.29 555.47,853.71 C556.06,851.04 559.95,830.17 568.51,783.72 C572.03,764.60 575.24,748.40 575.65,747.72 C576.05,747.05 579.85,742.45 584.10,737.50 C588.35,732.55 600.69,718.16 611.54,705.51 L 631.26 682.52 L 630.68 672.51 C630.36,667.01 629.57,650.35 628.92,635.50 L 627.75 608.50 L 631.78 593.50 C634.00,585.25 637.91,571.08 640.48,562.00 C646.81,539.58 650.00,527.13 650.00,524.80 C650.00,523.73 648.24,518.27 646.09,512.67 C633.36,479.55 629.58,470.05 628.46,460.25 C627.99,456.11 627.99,451.91 628.00,445.87 C628.00,445.22 628.00,444.56 628.00,443.87 L 628.00 425.00 L 839.70 425.00 C838.12,427.01 838.05,450.33 837.78,774.01 L 837.50 1122.50 L 447.81 1122.75 C184.52,1122.92 57.92,1122.67 57.49,1121.99 C57.15,1121.43 56.80,964.63 56.72,773.54 L 56.58 426.11 L 54.04 425.48 C52.49,425.09 51.22,424.46 50.24,423.62 C52.94,424.94 66.91,425.04 169.97,425.01 L 288.23 424.98 L 287.74 427.74 C286.79,433.02 282.17,451.75 271.54,493.50 C265.65,516.60 260.26,537.97 259.56,541.00 C258.87,544.03 254.56,560.90 249.99,578.50 C245.43,596.10 241.49,612.39 241.25,614.71 C240.86,618.39 241.62,620.46 247.30,631.21 C250.87,637.97 260.41,656.33 268.50,672.00 C276.59,687.67 284.29,701.94 285.62,703.70 C286.95,705.47 295.11,712.06 303.77,718.35 C335.00,741.06 336.28,742.13 337.58,746.50 C338.74,750.40 342.99,765.86 347.05,781.00 C348.16,785.12 351.08,795.92 353.55,805.00 C356.01,814.08 361.42,834.10 365.56,849.50 C369.70,864.90 374.42,882.22 376.05,888.00 C380.92,905.31 394.12,953.97 396.05,961.77 C397.05,965.77 398.31,970.50 398.86,972.27 C399.40,974.05 401.52,981.58 403.55,989.00 C405.58,996.42 407.82,1003.63 408.53,1005.01 C410.16,1008.22 441.89,1039.36 446.23,1042.00 C450.35,1044.51 453.30,1044.52 458.43,1042.02 ZM 432.67 1018.05 L 415.50 1001.09 L 413.25 991.80 C412.00,986.68 408.32,972.83 405.06,961.00 C401.79,949.17 397.47,933.20 395.45,925.50 C394.07,920.23 391.95,912.30 389.57,903.47 C394.05,919.80 398.33,935.04 399.66,939.25 C401.27,944.35 401.31,944.37 409.50,944.08 C416.62,943.82 417.09,943.58 421.51,937.89 L 423.52 935.31 C440.27,913.79 445.06,907.63 448.27,908.37 C449.68,908.70 450.78,910.36 452.46,912.64 C465.97,931.01 471.14,938.18 473.99,942.50 C475.80,945.25 477.98,948.07 478.84,948.76 C480.53,950.12 485.75,949.59 489.93,947.63 C491.61,946.85 492.22,946.66 494.25,940.11 C491.96,948.19 489.37,957.24 486.00,969.00 C484.97,972.58 483.20,979.17 482.07,983.65 C480.44,990.11 477.64,995.99 468.63,1011.90 C462.38,1022.95 456.69,1032.66 456.01,1033.49 C452.93,1037.20 450.28,1035.44 432.67,1018.05 ZM 403.74 952.40 C404.14,952.81 405.29,952.13 406.28,950.90 C407.86,948.95 407.91,948.48 406.64,947.21 C405.84,946.42 404.70,946.07 404.10,946.44 C402.86,947.20 402.61,951.28 403.74,952.40 ZM 383.78 882.07 C382.07,875.81 380.42,869.76 378.97,864.50 C378.57,863.07 378.07,861.22 377.52,859.18 C378.34,861.93 380.98,871.60 383.49,881.00 ZM 505.00 901.86 C506.23,897.50 507.16,894.21 507.52,893.00 C508.26,890.53 510.03,884.63 511.45,879.89 C511.95,878.22 512.52,876.56 513.08,875.09 C511.90,878.46 510.22,883.92 507.53,893.00 C507.16,894.26 506.21,897.57 505.00,901.86 ZM 842.54 422.85 L 842.93 422.37 C844.72,420.08 845.29,418.19 844.64,416.40 C844.87,416.92 845.00,417.40 845.00,417.78 C845.00,419.26 843.92,421.31 842.54,422.85 ZM 48.66 421.58 C48.23,420.69 48.01,419.69 48.02,418.60 C48.01,419.58 48.26,420.66 48.66,421.58 Z" fill="rgb(97,176,225)"/>
<path d="M 505.00 901.86 C503.84,905.98 502.43,911.01 501.04,916.00 C498.72,924.30 496.65,931.68 494.25,940.11 C492.22,946.66 491.61,946.85 489.93,947.63 C485.75,949.59 480.53,950.12 478.84,948.76 C477.98,948.07 475.80,945.25 473.99,942.50 C471.14,938.18 465.97,931.01 452.46,912.64 C450.78,910.36 449.68,908.70 448.27,908.37 C445.06,907.63 440.27,913.79 423.52,935.31 L 421.51 937.89 C417.09,943.58 416.62,943.82 409.50,944.08 C401.31,944.37 401.27,944.35 399.66,939.25 C398.33,935.04 394.05,919.80 389.57,903.47 L 389.57 903.47 C387.72,896.60 385.72,889.19 383.78,882.07 L 383.49 881.00 C380.98,871.60 378.34,861.93 377.52,859.18 C376.38,854.95 375.02,849.90 374.00,846.00 C372.47,840.22 369.39,828.97 367.15,821.00 C364.91,813.03 361.91,802.22 360.50,797.00 C357.18,784.73 354.73,775.77 351.47,764.00 C350.02,758.78 347.94,751.12 346.85,747.00 C345.75,742.88 343.88,738.44 342.68,737.15 C341.48,735.86 330.40,727.31 318.06,718.15 C305.72,708.99 294.78,700.60 293.75,699.50 C292.72,698.40 284.31,682.88 275.06,665.00 C265.81,647.12 256.35,628.90 254.04,624.50 L 249.85 616.50 L 267.49 546.50 C293.78,442.23 297.00,429.24 297.00,427.58 C297.00,426.23 314.56,426.03 455.75,425.78 C543.06,425.63 615.48,425.66 616.67,425.85 C618.80,426.20 618.86,426.60 619.22,445.35 L 619.60 464.50 L 623.41 475.50 C625.50,481.55 630.37,495.05 634.22,505.50 L 641.21 524.50 L 640.02 530.50 C639.36,533.80 636.42,544.83 633.48,555.00 C630.54,565.17 626.96,578.22 625.51,584.00 C624.06,589.78 621.96,597.51 620.85,601.20 C618.94,607.55 618.89,608.99 619.91,629.20 C620.50,640.91 621.28,657.09 621.64,665.15 L 622.30 679.80 L 612.40 691.24 C594.45,711.98 572.57,737.95 569.21,742.52 C567.07,745.42 565.20,753.03 561.58,773.50 C560.70,778.45 557.79,794.42 555.09,809.00 C552.40,823.58 549.66,838.81 548.99,842.86 C548.55,845.56 548.51,847.15 547.93,848.49 C546.71,851.28 543.11,853.03 528.50,861.66 C522.45,865.24 516.72,868.86 515.77,869.72 C515.00,870.41 514.29,871.68 513.08,875.09 C512.52,876.56 511.95,878.22 511.45,879.89 C510.03,884.63 508.26,890.53 507.52,893.00 C507.16,894.21 506.23,897.50 505.00,901.86 ZM 480.73 683.75 C482.74,681.58 493.39,664.80 509.01,639.23 C513.13,632.48 517.81,624.83 519.40,622.23 C521.00,619.63 524.07,613.99 526.23,609.71 L 530.16 601.92 L 528.12 589.21 C526.43,578.68 522.31,551.60 520.38,538.25 C519.71,533.62 517.00,533.89 517.00,538.58 C517.00,542.29 520.94,572.60 523.52,588.74 C524.34,593.82 525.00,599.00 525.00,600.26 C525.00,602.42 518.40,613.82 497.95,647.00 C493.03,654.97 486.92,664.99 484.36,669.25 C481.81,673.51 479.39,677.00 478.99,677.00 C478.60,677.00 477.73,674.19 477.06,670.75 C469.92,634.02 467.30,625.83 453.94,598.50 C442.25,574.57 436.45,564.54 434.10,564.18 C432.95,564.00 432.00,564.29 432.00,564.81 C432.00,565.33 434.02,569.42 436.50,573.89 C443.54,586.62 453.37,606.59 457.73,617.00 C465.79,636.28 467.47,642.28 471.45,666.00 C474.25,682.70 475.21,686.00 477.30,686.00 C478.05,686.00 479.59,684.99 480.73,683.75 ZM 403.74 952.40 C402.61,951.28 402.86,947.20 404.10,946.44 C404.70,946.07 405.84,946.42 406.64,947.21 C407.91,948.48 407.86,948.95 406.28,950.90 C405.29,952.13 404.14,952.81 403.74,952.40 Z" fill="rgb(149,210,242)"/>
<path d="M 0.00 576.00 L 0.00 0.00 L 448.00 0.00 L 896.00 0.00 L 896.00 576.00 L 896.00 1152.00 L 448.00 1152.00 L 0.00 1152.00 L 0.00 576.00 ZM 837.78 774.01 C838.06,435.44 838.12,425.50 839.93,424.83 C842.24,423.97 845.00,420.14 845.00,417.78 C845.00,416.80 844.10,415.10 843.00,414.00 C841.02,412.02 839.67,412.00 730.93,412.00 L 620.86 412.00 L 612.68 406.18 C608.18,402.98 594.83,393.40 583.00,384.90 C571.17,376.40 557.79,366.84 553.26,363.66 L 545.02 357.88 L 515.26 350.48 C490.42,344.30 485.17,342.68 483.50,340.71 C482.40,339.41 474.13,329.28 465.11,318.20 C451.09,300.96 448.14,297.85 444.61,296.59 C442.35,295.79 431.27,292.98 420.00,290.36 L 399.50 285.60 L 389.50 275.34 L 379.50 265.09 L 359.93 259.04 C349.17,255.72 338.91,253.00 337.12,253.00 C333.42,253.00 330.78,255.58 318.76,270.89 L 311.50 280.14 L 300.50 284.68 C283.30,291.78 283.64,291.73 275.56,288.06 C271.75,286.33 265.35,282.84 261.35,280.31 C254.56,276.01 253.05,274.00 256.60,274.00 C258.73,274.00 265.21,270.54 268.91,267.42 C276.97,260.64 278.85,248.22 273.46,237.42 C270.90,232.30 269.42,230.78 262.50,226.17 C254.63,220.92 254.40,220.84 248.74,221.40 C235.05,222.75 224.01,233.56 222.41,247.17 C221.22,257.29 227.72,267.24 238.79,272.26 C241.93,273.69 245.28,275.09 246.23,275.39 C249.30,276.34 247.22,278.99 243.92,278.33 C239.05,277.36 239.02,280.43 243.86,285.36 L 248.00 289.58 L 248.00 318.37 L 248.00 347.16 L 243.95 361.33 C241.20,370.97 237.85,379.65 233.48,388.50 C229.95,395.65 226.20,403.75 225.15,406.50 L 223.24 411.50 L 136.58 412.00 C41.37,412.55 48.05,412.05 48.02,418.60 C48.00,422.02 50.18,424.51 54.04,425.48 L 56.58 426.11 L 56.72 773.54 C56.80,964.63 57.15,1121.43 57.49,1121.99 C57.92,1122.67 184.52,1122.92 447.81,1122.75 L 837.50 1122.50 L 837.78 774.01 ZM 230.69 411.27 C230.44,410.85 233.95,402.99 238.49,393.81 C244.75,381.15 247.39,374.50 249.43,366.27 C250.91,360.30 252.50,354.82 252.95,354.09 C253.54,353.13 255.52,354.98 259.98,360.63 C263.40,364.96 267.24,370.30 268.52,372.50 C271.18,377.10 272.76,386.86 273.20,401.50 L 273.50 411.50 L 252.32 411.77 C240.67,411.92 230.94,411.69 230.69,411.27 ZM 279.94 411.30 C279.90,410.86 279.91,406.23 279.96,401.00 C280.06,389.89 277.94,375.72 275.45,370.89 C274.49,369.03 269.50,362.15 264.35,355.62 L 255.00 343.74 L 255.00 319.87 C255.00,306.74 255.27,296.00 255.61,296.00 C255.94,296.00 259.08,298.28 262.58,301.07 C266.09,303.85 271.53,307.04 274.68,308.15 C279.75,309.93 281.83,310.08 292.95,309.47 C308.53,308.61 308.47,308.57 309.34,321.50 C309.67,326.45 310.63,336.80 311.47,344.50 C313.81,365.95 314.29,363.68 302.13,389.00 L 291.33 411.50 L 285.67 411.80 C282.55,411.96 279.97,411.74 279.94,411.30 ZM 302.00 411.14 C302.00,410.67 305.75,402.46 310.34,392.89 C320.27,372.20 321.64,369.19 322.47,366.31 C322.82,365.10 322.20,357.23 321.11,348.81 C320.01,340.39 318.83,329.45 318.48,324.50 L 317.84 315.50 L 322.17 313.50 C329.97,309.90 330.00,302.47 322.23,298.18 C318.18,295.95 318.00,295.64 318.00,291.13 C318.00,286.67 318.52,285.76 327.55,274.46 C332.80,267.88 337.55,262.34 338.11,262.15 C338.67,261.95 347.42,264.42 357.56,267.64 L 376.00 273.49 L 384.12 282.82 C388.59,287.96 393.21,292.55 394.38,293.04 C395.54,293.52 405.27,296.00 416.00,298.56 C426.73,301.11 437.13,303.61 439.13,304.11 C442.14,304.86 444.42,307.07 452.65,317.26 C474.72,344.56 479.43,349.83 483.24,351.42 C485.29,352.27 499.24,355.96 514.24,359.62 C535.11,364.71 542.35,366.88 545.14,368.88 C547.13,370.32 560.96,380.23 575.85,390.91 C590.74,401.58 602.69,410.69 602.40,411.16 C601.72,412.27 302.00,412.25 302.00,411.14 ZM 312.20 307.80 C308.70,304.30 314.08,300.95 319.06,303.53 C320.68,304.37 322.00,305.40 322.00,305.83 C322.00,307.52 319.44,309.00 316.50,309.00 C314.80,309.00 312.86,308.46 312.20,307.80 ZM 277.00 302.26 C274.53,301.31 262.79,293.23 258.52,289.55 C254.47,286.05 254.30,283.45 258.30,285.96 C259.51,286.73 264.67,289.52 269.76,292.18 C281.40,298.24 283.98,298.32 297.24,293.00 C302.72,290.80 307.61,289.00 308.11,289.00 C309.89,289.00 309.02,297.16 306.93,300.10 L 304.86 303.00 L 291.68 302.92 C284.43,302.88 277.83,302.58 277.00,302.26 ZM 241.11 266.34 C231.30,261.17 227.23,253.62 229.48,244.77 C230.99,238.84 234.91,233.72 240.45,230.48 C244.18,228.29 245.57,228.01 249.75,228.56 C263.70,230.41 272.05,241.28 269.59,254.39 C268.25,261.49 260.38,267.59 251.18,268.65 C247.32,269.09 245.55,268.68 241.11,266.34 ZM 259.25 262.61 C261.90,260.60 261.35,259.00 258.03,259.00 C256.39,259.00 253.02,258.01 250.53,256.80 C245.87,254.54 243.33,255.09 244.49,258.12 C245.32,260.28 252.02,263.48 256.50,263.85 C257.05,263.90 258.29,263.34 259.25,262.61 ZM 252.99 246.51 C254.65,244.51 253.54,242.00 251.00,242.00 C249.87,242.00 248.68,242.68 248.36,243.51 C247.78,245.01 249.54,248.00 251.00,248.00 C251.42,248.00 252.31,247.33 252.99,246.51 ZM 265.50 244.51 C265.50,242.37 262.41,241.19 260.86,242.74 C260.35,243.25 260.23,244.44 260.59,245.39 C261.52,247.80 265.50,247.09 265.50,244.51 Z" fill="none"/>
</g>
</svg>
