<svg xmlns="http://www.w3.org/2000/svg" width="589" height="755" viewBox="0 0 589 755">
<g>
<path d="M 300.37 681.88 C299.01,682.50 297.04,683.00 295.98,683.00 C293.87,683.00 276.19,667.30 270.96,660.80 C267.30,656.24 266.26,653.21 258.64,624.79 C255.65,613.63 249.28,590.10 244.49,572.50 C239.70,554.90 232.50,528.42 228.49,513.65 C222.45,491.43 220.72,486.32 218.47,483.97 C216.97,482.40 209.89,476.93 202.74,471.81 C195.58,466.69 188.71,461.15 187.48,459.50 C185.08,456.29 159.69,407.76 158.59,404.27 C158.18,402.98 163.90,378.31 173.50,339.96 C182.07,305.74 188.95,277.64 188.79,277.50 C188.63,277.37 153.44,276.99 110.58,276.67 C40.06,276.13 32.07,276.11 31.14,273.53 C31.02,273.20 31.02,272.83 31.02,272.41 C31.02,272.37 31.02,272.33 31.02,272.29 C30.98,269.43 35.42,269.00 64.68,269.00 C81.08,269.00 106.20,268.70 120.50,268.33 L 146.50 267.67 L 150.84 258.08 C153.23,252.81 156.81,244.00 158.79,238.50 C162.39,228.50 162.39,228.49 162.77,208.73 L 163.15 188.97 L 160.58 185.91 C157.48,182.23 157.34,181.00 160.00,181.00 C163.28,181.00 162.28,179.18 157.75,176.91 C149.78,172.91 146.00,167.93 146.00,161.45 C146.00,153.51 152.42,146.06 161.04,143.99 C165.21,142.99 166.26,143.10 169.64,144.84 C177.37,148.82 181.00,154.31 181.00,162.02 C181.00,168.73 176.96,174.43 170.19,177.28 C166.21,178.95 166.44,179.20 177.42,184.97 C181.49,187.11 183.69,188.26 185.96,188.43 C188.62,188.61 191.38,187.43 197.38,184.86 L 197.42 184.84 C203.71,182.14 205.14,180.98 210.23,174.44 C218.36,163.99 219.28,163.50 227.10,165.53 C245.69,170.34 248.59,171.69 255.29,178.62 L 261.61 185.16 L 277.40 189.04 C286.09,191.17 293.85,193.46 294.64,194.12 C295.43,194.78 300.82,201.26 306.62,208.53 C312.41,215.80 318.16,222.21 319.39,222.77 C320.63,223.33 329.89,225.90 339.98,228.47 C355.70,232.47 359.12,233.70 363.91,237.05 C366.98,239.20 378.27,247.25 389.00,254.95 L 408.50 268.94 L 553.50 269.50 L 553.83 271.81 C553.85,272.00 553.89,272.19 553.91,272.37 C554.04,273.12 554.14,273.74 553.95,274.27 C552.99,277.01 544.23,277.01 489.75,277.00 C487.21,277.00 484.56,277.00 481.80,277.00 L 411.85 277.00 L 412.54 305.50 L 418.40 321.00 C422.66,332.28 424.88,337.12 425.19,342.07 C425.48,346.67 424.14,351.36 421.27,361.38 C420.70,363.37 420.07,365.56 419.39,368.00 L 412.50 392.50 L 412.64 413.00 C412.72,424.27 413.07,436.27 413.41,439.66 L 414.04 445.82 L 400.77 461.17 C393.47,469.61 385.15,479.25 382.29,482.60 L 377.07 488.69 L 370.52 523.59 C363.08,563.22 364.98,559.01 350.76,567.31 L 341.92 572.46 L 339.46 580.73 C333.39,601.12 331.77,606.82 325.99,627.96 C322.62,640.32 319.74,650.67 319.59,650.96 C319.45,651.26 315.61,658.08 311.08,666.13 C305.52,675.99 302.03,681.12 300.37,681.88 ZM 295.91 677.16 C298.15,678.10 300.88,674.53 308.16,661.12 C315.49,647.63 314.73,649.82 326.05,609.50 C330.99,591.90 335.70,575.69 336.51,573.48 C337.80,569.96 339.30,568.65 348.50,563.00 C354.28,559.45 359.21,555.86 359.45,555.02 C359.69,554.18 362.44,539.55 365.56,522.50 C368.68,505.45 371.79,490.15 372.47,488.50 C373.60,485.78 386.47,469.88 402.42,451.50 L 408.50 444.50 L 407.85 431.50 C406.20,398.48 406.30,397.32 413.38,371.12 C416.89,358.13 420.02,346.34 420.35,344.92 C420.77,343.12 418.83,336.43 413.98,322.94 C408.86,308.71 407.00,302.20 406.99,298.52 C406.99,295.76 406.70,289.79 406.35,285.25 L 405.70 277.00 L 340.52 277.00 C304.66,277.00 257.14,277.30 234.91,277.67 L 194.50 278.34 L 163.43 403.00 L 173.29 421.75 C192.36,457.99 191.43,456.53 199.43,462.80 C203.43,465.94 210.82,471.63 215.84,475.46 C226.69,483.73 224.65,478.82 238.55,530.00 L 254.98 590.50 C258.71,604.25 264.15,624.61 267.06,635.74 L 272.35 655.99 L 283.33 666.24 C289.37,671.88 295.03,676.80 295.91,677.16 ZM 210.75 268.25 C232.48,268.84 362.33,268.73 379.00,268.11 L 395.50 267.50 L 387.50 261.51 C365.59,245.11 356.27,238.91 351.50,237.58 C346.36,236.15 326.72,230.93 319.37,229.04 C315.04,227.94 312.12,225.01 298.58,208.20 C295.34,204.19 291.63,200.07 290.33,199.04 C289.02,198.02 283.58,196.17 278.23,194.94 C258.51,190.40 258.66,190.46 252.16,183.51 C246.35,177.30 245.90,177.04 235.00,173.59 C224.46,170.25 223.64,170.13 220.86,171.57 C219.24,172.41 217.41,174.20 216.80,175.55 C216.18,176.90 215.34,178.00 214.93,178.00 C213.66,178.00 208.00,187.24 208.00,189.32 C208.00,190.40 209.61,192.69 211.59,194.39 C214.52,196.94 215.05,197.96 214.53,200.05 C214.12,201.66 212.77,203.03 210.88,203.74 C207.89,204.87 207.89,204.87 208.51,211.18 C208.85,214.66 209.57,220.72 210.12,224.65 C211.25,232.83 211.06,242.00 209.76,242.00 C209.28,242.00 209.14,242.41 209.45,242.91 C209.76,243.42 209.67,243.98 209.26,244.16 C208.11,244.68 199.00,264.26 199.00,266.22 C199.00,267.73 200.43,267.98 210.75,268.25 ZM 184.68 268.25 C185.21,269.15 185.78,269.16 188.90,268.33 C190.79,267.83 192.62,264.90 197.59,254.51 C201.05,247.26 204.19,240.08 204.57,238.56 C205.40,235.27 203.08,205.26 201.80,202.73 C201.04,201.22 199.60,200.99 191.68,201.13 C181.93,201.30 179.10,200.46 172.32,195.38 C170.57,194.07 168.65,193.00 168.07,193.00 C167.36,193.00 167.00,198.04 167.00,208.00 L 167.00 222.99 L 173.90 232.08 C181.51,242.11 182.47,244.72 183.54,258.50 C183.93,263.45 184.44,267.84 184.68,268.25 ZM 151.61 268.18 C152.22,269.16 164.25,269.26 172.99,268.34 L 179.27 267.69 L 178.73 257.59 C178.44,252.04 177.71,246.25 177.11,244.73 C175.51,240.62 168.14,231.00 166.59,231.00 C165.77,231.00 164.60,233.54 163.60,237.55 C162.15,243.30 156.83,256.32 152.54,264.59 C151.75,266.11 151.33,267.73 151.61,268.18 ZM 159.46 173.11 C163.55,174.96 165.35,174.84 170.16,172.39 C176.96,168.94 178.97,161.24 174.73,154.90 C170.15,148.04 161.47,146.05 156.04,150.62 C147.04,158.19 148.56,168.18 159.46,173.11 ZM 316.36 444.75 C315.01,446.54 313.50,448.00 313.02,448.00 C312.18,448.00 310.43,440.86 307.98,427.50 C305.72,415.15 299.83,400.10 289.14,379.39 C286.36,373.99 284.33,369.34 284.63,369.04 C285.54,368.13 287.83,371.93 295.59,387.27 C304.03,403.94 307.82,414.62 311.05,430.83 C312.28,436.97 313.61,442.00 314.00,442.00 C315.28,442.00 334.75,411.16 341.48,398.46 L 344.72 392.36 L 342.92 379.93 C340.34,362.12 339.27,351.00 340.15,351.00 C340.98,351.00 341.06,351.40 344.05,370.50 C344.26,371.80 344.45,373.02 344.63,374.17 C346.53,386.19 347.26,390.79 346.15,394.90 C345.36,397.84 343.64,400.53 340.73,405.50 C332.07,420.34 319.39,440.76 316.36,444.75 ZM 175.82 192.53 C182.44,196.97 182.53,197.00 191.21,197.00 C199.88,197.00 199.96,196.98 201.47,194.05 C203.35,190.42 203.43,188.00 201.67,188.00 C200.94,188.00 197.58,189.12 194.19,190.50 C190.81,191.88 187.12,193.00 185.99,193.00 C184.87,193.00 180.82,191.43 177.00,189.50 C165.56,183.74 164.97,185.25 175.82,192.53 ZM 170.69 169.44 C170.08,171.31 166.59,171.09 163.14,168.96 C161.29,167.82 160.02,166.64 160.33,166.34 C161.27,165.39 171.06,168.33 170.69,169.44 ZM 205.25 200.36 C207.51,201.30 210.50,200.53 210.50,199.00 C210.50,198.04 209.33,197.39 207.25,197.19 C204.91,196.96 204.00,197.29 204.00,198.35 C204.00,199.17 204.56,200.07 205.25,200.36 ZM 166.00 158.44 C166.00,160.11 164.57,161.24 163.64,160.31 C162.44,159.11 162.99,157.00 164.50,157.00 C165.32,157.00 166.00,157.65 166.00,158.44 ZM 174.00 157.94 C174.00,159.20 172.44,160.11 171.64,159.31 C170.51,158.18 170.95,157.00 172.50,157.00 C173.32,157.00 174.00,157.42 174.00,157.94 Z" fill="rgba(62,77,88,1)"/>
<path d="M 300.37 681.88 C302.03,681.12 305.52,675.99 311.08,666.13 C315.61,658.08 319.45,651.26 319.59,650.96 C319.74,650.67 322.62,640.32 325.99,627.96 C331.77,606.82 333.39,601.12 339.46,580.73 L 341.92 572.46 L 350.76 567.31 C364.98,559.01 363.08,563.22 370.52,523.59 L 377.07 488.69 L 382.29 482.60 C385.15,479.25 393.47,469.61 400.77,461.17 L 414.04 445.82 L 413.41 439.66 C413.07,436.27 412.72,424.27 412.64,413.00 L 412.50 392.50 L 419.39 368.00 C420.07,365.56 420.70,363.37 421.27,361.38 C424.14,351.36 425.48,346.67 425.19,342.07 C424.88,337.12 422.66,332.28 418.40,321.00 L 412.54 305.50 L 411.85 277.00 L 481.80 277.00 C484.56,277.00 487.21,277.00 489.75,277.00 L 489.76 277.00 C536.63,277.01 549.66,277.01 552.99,275.26 C552.79,275.60 552.57,275.92 552.33,276.19 C550.57,278.13 550.49,286.87 550.24,506.60 L 549.99 735.00 L 294.16 735.00 C153.46,735.00 38.03,734.70 37.67,734.33 C37.30,733.97 37.00,630.93 37.00,505.35 L 37.00 277.04 L 34.54 276.42 C33.10,276.06 32.08,275.18 31.59,274.16 C33.98,276.11 46.30,276.18 110.58,276.67 C153.44,276.99 188.63,277.37 188.79,277.50 C188.95,277.64 182.07,305.74 173.50,339.96 C163.90,378.31 158.18,402.98 158.59,404.27 C159.69,407.76 185.08,456.29 187.48,459.50 C188.71,461.15 195.58,466.69 202.74,471.81 C209.89,476.93 216.97,482.40 218.47,483.97 C220.72,486.32 222.45,491.43 228.49,513.65 C232.50,528.42 239.70,554.90 244.49,572.50 C249.28,590.10 255.65,613.63 258.64,624.79 C266.26,653.21 267.30,656.24 270.96,660.80 C276.19,667.30 293.87,683.00 295.98,683.00 C297.04,683.00 299.01,682.50 300.37,681.88 ZM 295.91 677.16 C295.03,676.80 289.37,671.88 283.33,666.24 L 272.35 655.99 L 267.06 635.74 C264.15,624.61 258.71,604.25 254.98,590.50 L 245.88 557.01 C248.66,567.22 251.76,578.61 255.19,591.25 L 262.45 618.00 L 266.79 618.00 C272.60,618.00 274.07,617.06 279.68,609.74 C286.14,601.32 292.01,595.00 293.39,595.00 C294.01,595.00 298.74,600.83 303.89,607.95 C309.04,615.07 313.99,621.06 314.88,621.26 C316.49,621.62 321.85,620.48 322.73,619.60 C322.99,619.35 326.07,609.10 329.59,596.82 C331.30,590.84 332.98,585.11 334.31,580.65 C332.30,587.47 329.22,598.20 326.05,609.50 C314.73,649.82 315.49,647.63 308.16,661.12 C300.88,674.53 298.15,678.10 295.91,677.16 ZM 264.00 621.00 C264.00,622.11 264.67,623.00 265.50,623.00 C266.33,623.00 267.00,622.11 267.00,621.00 C267.00,619.89 266.33,619.00 265.50,619.00 C264.67,619.00 264.00,619.89 264.00,621.00 ZM 228.10 492.39 C226.23,486.49 224.85,483.55 223.09,481.43 C225.02,483.36 225.79,484.85 226.56,487.17 C226.82,487.97 227.33,489.70 228.10,492.39 ZM 32.42 270.44 C32.47,270.40 32.52,270.36 32.57,270.33 C33.98,269.29 41.05,269.00 64.44,269.00 C43.39,269.00 35.27,269.23 32.42,270.44 ZM 336.46 573.61 C336.73,572.77 336.92,572.21 337.03,571.95 C337.20,571.54 337.58,571.03 338.17,570.43 C337.41,571.36 336.95,572.30 336.51,573.48 C336.50,573.52 336.48,573.56 336.46,573.61 Z" fill="rgb(98,175,224)"/>
<path d="M 210.75 268.25 C200.43,267.98 199.00,267.73 199.00,266.22 C199.00,264.26 208.11,244.68 209.26,244.16 C209.67,243.98 209.76,243.42 209.45,242.91 C209.14,242.41 209.28,242.00 209.76,242.00 C211.06,242.00 211.25,232.83 210.12,224.65 C209.57,220.72 208.85,214.66 208.51,211.18 C207.89,204.87 207.89,204.87 210.88,203.74 C212.77,203.03 214.12,201.66 214.53,200.05 C215.05,197.96 214.52,196.94 211.59,194.39 C209.61,192.69 208.00,190.40 208.00,189.32 C208.00,187.24 213.66,178.00 214.93,178.00 C215.34,178.00 216.18,176.90 216.80,175.55 C217.41,174.20 219.24,172.41 220.86,171.57 C223.64,170.13 224.46,170.25 235.00,173.59 C245.90,177.04 246.35,177.30 252.16,183.51 C258.66,190.46 258.51,190.40 278.23,194.94 C283.58,196.17 289.02,198.02 290.33,199.04 C291.63,200.07 295.34,204.19 298.58,208.20 C312.12,225.01 315.04,227.94 319.37,229.04 C326.72,230.93 346.36,236.15 351.50,237.58 C356.27,238.91 365.59,245.11 387.50,261.51 L 395.50 267.50 L 379.00 268.11 C362.33,268.73 232.48,268.84 210.75,268.25 Z" fill="rgba(255, 255, 255, 1)"/>
<path d="M 228.10 492.39 C227.33,489.70 226.82,487.97 226.56,487.17 C225.79,484.85 225.02,483.36 223.09,481.43 C221.34,479.32 219.21,478.03 215.84,475.46 C210.82,471.63 203.43,465.94 199.43,462.80 C191.43,456.53 192.36,457.99 173.29,421.75 L 163.43 403.00 L 194.50 278.34 L 234.91 277.67 C257.14,277.30 304.66,277.00 340.52,277.00 L 405.70 277.00 L 406.35 285.25 C406.70,289.79 406.99,295.76 406.99,298.52 C407.00,302.20 408.86,308.71 413.98,322.94 C418.83,336.43 420.77,343.12 420.35,344.92 C420.02,346.34 416.89,358.13 413.38,371.12 C406.30,397.32 406.20,398.48 407.85,431.50 L 408.50 444.50 L 402.42 451.50 C386.47,469.88 373.60,485.78 372.47,488.50 C371.79,490.15 368.68,505.45 365.56,522.50 C362.44,539.55 359.69,554.18 359.45,555.02 C359.21,555.86 354.28,559.45 348.50,563.00 C342.40,566.75 339.69,568.59 338.17,570.43 C337.58,571.03 337.20,571.54 337.03,571.95 C336.92,572.21 336.73,572.77 336.46,573.61 C336.14,574.53 335.37,577.04 334.31,580.65 C332.98,585.11 331.30,590.84 329.59,596.82 C326.07,609.10 322.99,619.35 322.73,619.60 C321.85,620.48 316.49,621.62 314.88,621.26 C313.99,621.06 309.04,615.07 303.89,607.95 C298.74,600.83 294.01,595.00 293.39,595.00 C292.01,595.00 286.14,601.32 279.68,609.74 C274.07,617.06 272.60,618.00 266.79,618.00 L 262.45 618.00 L 255.19 591.25 C251.76,578.61 248.66,567.22 245.88,557.01 L 238.55 530.00 C233.33,510.77 230.36,499.46 228.10,492.39 ZM 316.36 444.75 C319.39,440.76 332.07,420.34 340.73,405.50 C343.64,400.53 345.36,397.84 346.15,394.90 C347.26,390.79 346.53,386.19 344.63,374.17 C344.45,373.02 344.26,371.80 344.05,370.50 C341.06,351.40 340.98,351.00 340.15,351.00 C339.27,351.00 340.34,362.12 342.92,379.93 L 344.72 392.36 L 341.48 398.46 C334.75,411.16 315.28,442.00 314.00,442.00 C313.61,442.00 312.28,436.97 311.05,430.83 C307.82,414.62 304.03,403.94 295.59,387.27 C287.83,371.93 285.54,368.13 284.63,369.04 C284.33,369.34 286.36,373.99 289.14,379.39 C299.83,400.10 305.72,415.15 307.98,427.50 C310.43,440.86 312.18,448.00 313.02,448.00 C313.50,448.00 315.01,446.54 316.36,444.75 ZM 264.00 621.00 C264.00,619.89 264.67,619.00 265.50,619.00 C266.33,619.00 267.00,619.89 267.00,621.00 C267.00,622.11 266.33,623.00 265.50,623.00 C264.67,623.00 264.00,622.11 264.00,621.00 Z" fill="rgb(149,209,240)"/>
<path d="M 0.00 377.50 L 0.00 0.00 L 294.50 0.00 L 589.00 0.00 L 589.00 377.50 L 589.00 755.00 L 294.50 755.00 L 0.00 755.00 L 0.00 377.50 ZM 550.24 506.60 C550.49,286.87 550.57,278.13 552.33,276.19 C553.34,275.08 554.01,273.12 553.83,271.83 L 553.50 269.50 L 481.00 269.22 L 408.50 268.94 L 389.00 254.95 C378.27,247.25 366.98,239.20 363.91,237.05 C359.12,233.70 355.70,232.47 339.98,228.47 C329.89,225.90 320.63,223.33 319.39,222.77 C318.16,222.21 312.41,215.80 306.62,208.53 C300.82,201.26 295.43,194.78 294.64,194.12 C293.85,193.46 286.09,191.17 277.40,189.04 L 261.61 185.16 L 255.29 178.62 C248.59,171.69 245.69,170.34 227.10,165.53 C219.28,163.50 218.36,163.99 210.23,174.44 C205.14,180.98 203.71,182.14 197.42,184.84 C186.26,189.63 186.28,189.63 177.42,184.97 C166.44,179.20 166.21,178.95 170.19,177.28 C176.96,174.43 181.00,168.73 181.00,162.02 C181.00,154.31 177.37,148.82 169.64,144.84 C166.26,143.10 165.21,142.99 161.04,143.99 C152.42,146.06 146.00,153.51 146.00,161.45 C146.00,167.93 149.78,172.91 157.75,176.91 C162.28,179.18 163.28,181.00 160.00,181.00 C157.34,181.00 157.48,182.23 160.58,185.91 L 163.15 188.97 L 162.77 208.73 C162.39,228.49 162.39,228.50 158.79,238.50 C156.81,244.00 153.23,252.81 150.84,258.08 L 146.50 267.67 L 120.50 268.33 C106.20,268.70 80.97,269.00 64.44,269.00 C41.05,269.00 33.98,269.29 32.57,270.33 C30.15,272.09 31.28,275.60 34.54,276.42 L 37.00 277.04 L 37.00 505.35 C37.00,630.93 37.30,733.97 37.67,734.33 C38.03,734.70 153.46,735.00 294.16,735.00 L 549.99 735.00 L 550.24 506.60 ZM 151.61 268.18 C151.33,267.73 151.75,266.11 152.54,264.59 C156.83,256.32 162.15,243.30 163.60,237.55 C164.60,233.54 165.77,231.00 166.59,231.00 C168.14,231.00 175.51,240.62 177.11,244.73 C177.71,246.25 178.44,252.04 178.73,257.59 L 179.27 267.69 L 172.99 268.34 C164.25,269.26 152.22,269.16 151.61,268.18 ZM 184.68 268.25 C184.44,267.84 183.93,263.45 183.54,258.50 C182.47,244.72 181.51,242.11 173.90,232.08 L 167.00 222.99 L 167.00 208.00 C167.00,198.04 167.36,193.00 168.07,193.00 C168.65,193.00 170.57,194.07 172.32,195.38 C179.10,200.46 181.93,201.30 191.68,201.13 C199.60,200.99 201.04,201.22 201.80,202.73 C203.08,205.26 205.40,235.27 204.57,238.56 C204.19,240.08 201.05,247.26 197.59,254.51 C192.62,264.90 190.79,267.83 188.90,268.33 C185.78,269.16 185.21,269.15 184.68,268.25 ZM 205.25 200.36 C204.56,200.07 204.00,199.17 204.00,198.35 C204.00,197.29 204.91,196.96 207.25,197.19 C209.33,197.39 210.50,198.04 210.50,199.00 C210.50,200.53 207.51,201.30 205.25,200.36 ZM 175.82 192.53 C164.97,185.25 165.56,183.74 177.00,189.50 C180.82,191.43 184.87,193.00 185.99,193.00 C187.12,193.00 190.81,191.88 194.19,190.50 C197.58,189.12 200.94,188.00 201.67,188.00 C203.43,188.00 203.35,190.42 201.47,194.05 C199.96,196.98 199.88,197.00 191.21,197.00 C182.53,197.00 182.44,196.97 175.82,192.53 ZM 159.46 173.11 C148.56,168.18 147.04,158.19 156.04,150.62 C161.47,146.05 170.15,148.04 174.73,154.90 C178.97,161.24 176.96,168.94 170.16,172.39 C165.35,174.84 163.55,174.96 159.46,173.11 ZM 170.69 169.44 C171.06,168.33 161.27,165.39 160.33,166.34 C160.02,166.64 161.29,167.82 163.14,168.96 C166.59,171.09 170.08,171.31 170.69,169.44 ZM 166.00 158.44 C166.00,157.65 165.32,157.00 164.50,157.00 C162.99,157.00 162.44,159.11 163.64,160.31 C164.57,161.24 166.00,160.11 166.00,158.44 ZM 174.00 157.94 C174.00,157.42 173.32,157.00 172.50,157.00 C170.95,157.00 170.51,158.18 171.64,159.31 C172.44,160.11 174.00,159.20 174.00,157.94 Z" fill="rgba(246, 247, 250, 0)"/>
</g>
</svg>